<svg width="60" height="71" viewBox="0 0 60 71" fill="none" xmlns="http://www.w3.org/2000/svg">
<path d="M30.2084 42C38.5383 42 45.3125 35.721 45.3125 28C45.3125 20.279 38.5383 14 30.2084 14C21.8784 14 15.1042 20.279 15.1042 28C15.1042 35.721 21.8784 42 30.2084 42ZM30.2084 21C34.3733 21 37.7604 24.1395 37.7604 28C37.7604 31.8605 34.3733 35 30.2084 35C26.0434 35 22.6563 31.8605 22.6563 28C22.6563 24.1395 26.0434 21 30.2084 21Z" fill="white"/>
<path d="M28.056 70.3403C28.6841 70.7693 29.4365 71 30.2083 71C30.9801 71 31.7326 70.7693 32.3606 70.3403C33.4887 69.577 60.0031 51.2624 59.8955 28.4002C59.8955 12.7411 46.5771 0 30.2083 0C13.8395 0 0.52114 12.7411 0.52114 28.3825C0.413524 51.2624 26.9279 69.577 28.056 70.3403ZM30.2083 7.10006C42.4877 7.10006 52.4737 16.6532 52.4737 28.418C52.5516 44.173 36.1903 58.3199 30.2083 62.9598C24.2301 58.3163 7.865 44.1659 7.94293 28.4002C7.94293 16.6532 17.929 7.10006 30.2083 7.10006Z" fill="white"/>
</svg>
